<?xml version="1.0" encoding="utf-8"?>
<!-- Generator: Adobe Illustrator 16.0.0, SVG Export Plug-In . SVG Version: 6.00 Build 0)  -->
<!DOCTYPE svg PUBLIC "-//W3C//DTD SVG 1.1//EN" "http://www.w3.org/Graphics/SVG/1.1/DTD/svg11.dtd">
<svg version="1.1" id="Layer_1" xmlns="http://www.w3.org/2000/svg" xmlns:xlink="http://www.w3.org/1999/xlink" x="0px" y="0px"
	 width="60px" height="200px" viewBox="0 0 60 200" enable-background="new 0 0 60 200" xml:space="preserve">
<g id="green_x5F_button">
	<path id="shadow_1_" opacity="0.3" d="M0.434,161.56L0.416,38.506C0.413,17.283,12.78,0.076,28.038,0.074h0.001
		c15.258-0.002,27.632,17.2,27.635,38.423l0.018,123.055c0.004,21.223-12.364,38.431-27.623,38.433h-0.001
		C12.81,199.987,0.438,182.783,0.434,161.56z"/>
	<g id="button_1_">
		
			<linearGradient id="SVGID_1_" gradientUnits="userSpaceOnUse" x1="-15.9951" y1="87.3359" x2="183.915" y2="87.3359" gradientTransform="matrix(1.493259e-004 1 -1 1.493259e-004 116.5352 16.0562)">
			<stop  offset="0" style="stop-color:#2E8100"/>
			<stop  offset="0.4978" style="stop-color:#7BB61A"/>
			<stop  offset="1" style="stop-color:#2E8100"/>
		</linearGradient>
		<path fill="url(#SVGID_1_)" d="M0.681,161.56L0.663,38.506C0.66,17.283,13.435,0.076,29.196,0.074l0,0
			c15.762-0.002,28.542,17.2,28.545,38.423l0.018,123.054c0.004,21.224-12.771,38.431-28.533,38.434l0,0
			C13.464,199.986,0.685,182.783,0.681,161.56z"/>
		
			<linearGradient id="SVGID_2_" gradientUnits="userSpaceOnUse" x1="83.959" y1="112.9551" x2="83.959" y2="55.877" gradientTransform="matrix(1.493259e-004 1 -1 1.493259e-004 116.5352 16.0562)">
			<stop  offset="0" style="stop-color:#6EAF19"/>
			<stop  offset="1" style="stop-color:#BCFF32"/>
		</linearGradient>
		<path display="none" fill="url(#SVGID_2_)" d="M3.602,161.56L3.584,38.505C3.581,17.282,16.356,0.076,32.116,0.073h0.001
			c15.761-0.002,28.541,17.2,28.544,38.423l0.019,123.054c0.003,21.223-12.771,38.431-28.533,38.433h-0.001
			C16.386,199.985,3.605,182.782,3.602,161.56z"/>
		<path opacity="0.1" fill="#FFFFFF" d="M60.68,161.551L60.661,38.497C60.658,17.273,47.878,0.071,32.117,0.073h-0.001
			c-3.584,0-7.011,0.899-10.172,2.524C32.682,8.115,40.314,22.103,40.315,38.5l0.019,123.054
			c0.002,16.396-7.625,30.389-18.36,35.909c3.16,1.624,6.587,2.521,10.171,2.521h0.001C47.908,199.981,60.683,182.773,60.68,161.551
			z"/>
		<path opacity="0.1" fill="#FFFFFF" d="M40.315,38.5l0.019,123.054c0.002,14.67-6.103,27.408-15.078,33.885
			c10.209-6.481,17.153-19.223,17.15-33.885L42.389,38.5c-0.003-14.661-6.95-27.4-17.161-33.877
			C34.204,11.096,40.314,23.832,40.315,38.5z"/>
		
			<linearGradient id="SVGID_3_" gradientUnits="userSpaceOnUse" x1="83.959" y1="112.9551" x2="83.959" y2="55.877" gradientTransform="matrix(1.493259e-004 1 -1 1.493259e-004 116.5352 16.0562)">
			<stop  offset="0" style="stop-color:#5C9900"/>
			<stop  offset="0.2071" style="stop-color:#70AF0B"/>
			<stop  offset="1" style="stop-color:#BCFF32"/>
		</linearGradient>
		<path fill="url(#SVGID_3_)" d="M57.759,161.551c0.004,19.023-11.486,34.499-25.614,34.501
			c-14.125,0.003-25.62-15.47-25.623-34.493L6.503,38.505c-0.002-19.02,11.488-34.498,25.614-34.5
			c14.126-0.002,25.621,15.472,25.624,34.492L57.759,161.551 M60.68,161.551L60.661,38.497C60.658,17.273,47.878,0.071,32.117,0.073
			h-0.001C16.356,0.076,3.581,17.282,3.584,38.505L3.602,161.56c0.003,21.223,12.784,38.426,28.543,38.424h0.001
			C47.908,199.981,60.683,182.773,60.68,161.551L60.68,161.551z"/>
		<defs>
			<filter id="Adobe_OpacityMaskFilter" filterUnits="userSpaceOnUse" x="57.744" y="55.007" width="2.934" height="90.036">
				<feFlood  style="flood-color:white;flood-opacity:1" result="back"/>
				<feBlend  in="SourceGraphic" in2="back" mode="normal"/>
			</filter>
		</defs>
		<mask maskUnits="userSpaceOnUse" x="57.744" y="55.007" width="2.934" height="90.036" id="SVGID_4_">
			<g filter="url(#Adobe_OpacityMaskFilter)">
				<defs>
					<filter id="Adobe_OpacityMaskFilter_1_" filterUnits="userSpaceOnUse" x="57.744" y="55.007" width="2.934" height="90.036">
						<feFlood  style="flood-color:white;flood-opacity:1" result="back"/>
						<feBlend  in="SourceGraphic" in2="back" mode="normal"/>
					</filter>
				</defs>
				<mask maskUnits="userSpaceOnUse" x="57.744" y="55.007" width="2.934" height="90.036" id="SVGID_4_">
					<g filter="url(#Adobe_OpacityMaskFilter_1_)">
					</g>
				</mask>
				
					<linearGradient id="SVGID_5_" gradientUnits="userSpaceOnUse" x1="38.9424" y1="57.3364" x2="128.9785" y2="57.3364" gradientTransform="matrix(1.493259e-004 1 -1 1.493259e-004 116.5352 16.0562)">
					<stop  offset="0" style="stop-color:#000000"/>
					<stop  offset="0.4978" style="stop-color:#FFFFFF"/>
					<stop  offset="0.8338" style="stop-color:#515151"/>
					<stop  offset="1" style="stop-color:#000000"/>
				</linearGradient>
				<polygon mask="url(#SVGID_4_)" fill="url(#SVGID_5_)" points="57.758,145.043 57.744,55.008 60.664,55.007 60.678,145.042 				
					"/>
			</g>
		</mask>
		
			<linearGradient id="SVGID_6_" gradientUnits="userSpaceOnUse" x1="38.9424" y1="57.3364" x2="128.9785" y2="57.3364" gradientTransform="matrix(1.493259e-004 1 -1 1.493259e-004 116.5352 16.0562)">
			<stop  offset="0" style="stop-color:#D9FFBE"/>
			<stop  offset="0.4978" style="stop-color:#D9FFBE"/>
			<stop  offset="1" style="stop-color:#D9FFBE"/>
		</linearGradient>
		<polygon fill="url(#SVGID_6_)" points="57.758,145.043 57.744,55.008 60.664,55.007 60.678,145.042 		"/>
		<defs>
			<filter id="Adobe_OpacityMaskFilter_2_" filterUnits="userSpaceOnUse" x="3.584" y="40.995" width="2.937" height="118.075">
				<feFlood  style="flood-color:white;flood-opacity:1" result="back"/>
				<feBlend  in="SourceGraphic" in2="back" mode="normal"/>
			</filter>
		</defs>
		<mask maskUnits="userSpaceOnUse" x="3.584" y="40.995" width="2.937" height="118.075" id="SVGID_7_">
			<g filter="url(#Adobe_OpacityMaskFilter_2_)">
				<defs>
					<filter id="Adobe_OpacityMaskFilter_3_" filterUnits="userSpaceOnUse" x="3.584" y="40.995" width="2.937" height="118.075">
						<feFlood  style="flood-color:white;flood-opacity:1" result="back"/>
						<feBlend  in="SourceGraphic" in2="back" mode="normal"/>
					</filter>
				</defs>
				<mask maskUnits="userSpaceOnUse" x="3.584" y="40.995" width="2.937" height="118.075" id="SVGID_7_">
					<g filter="url(#Adobe_OpacityMaskFilter_3_)">
					</g>
				</mask>
				
					<linearGradient id="SVGID_8_" gradientUnits="userSpaceOnUse" x1="24.9229" y1="111.4941" x2="142.9971" y2="111.4941" gradientTransform="matrix(1.493259e-004 1 -1 1.493259e-004 116.5352 16.0562)">
					<stop  offset="0" style="stop-color:#000000"/>
					<stop  offset="0.4978" style="stop-color:#FFFFFF"/>
					<stop  offset="0.8338" style="stop-color:#515151"/>
					<stop  offset="1" style="stop-color:#000000"/>
				</linearGradient>
				<polygon mask="url(#SVGID_7_)" fill="url(#SVGID_8_)" points="3.602,159.07 3.584,40.996 6.504,40.995 6.521,159.069 				"/>
			</g>
		</mask>
		
			<linearGradient id="SVGID_9_" gradientUnits="userSpaceOnUse" x1="24.9229" y1="111.4941" x2="142.9971" y2="111.4941" gradientTransform="matrix(1.493259e-004 1 -1 1.493259e-004 116.5352 16.0562)">
			<stop  offset="0" style="stop-color:#D9FFBE"/>
			<stop  offset="0.4978" style="stop-color:#D9FFBE"/>
			<stop  offset="1" style="stop-color:#D9FFBE"/>
		</linearGradient>
		<polygon fill="url(#SVGID_9_)" points="3.602,159.07 3.584,40.996 6.504,40.995 6.521,159.069 		"/>
		<path opacity="0.5" fill="#FFFFFF" d="M54.578,34.34c-0.897,0.363-2.174-1.804-2.853-4.843c-0.679-3.038-0.502-5.794,0.396-6.158
			c0.896-0.362,2.173,1.806,2.852,4.843S55.475,33.976,54.578,34.34z"/>
		<ellipse opacity="0.5" fill="#FFFFFF" cx="50.368" cy="20.275" rx="1.671" ry="2.251"/>
		<ellipse opacity="0.5" fill="#FFFFFF" cx="53.371" cy="170.75" rx="1.672" ry="2.251"/>
		<ellipse opacity="0.5" fill="#FFFFFF" cx="51.699" cy="177.08" rx="1.166" ry="1.568"/>
	</g>
	
		<text transform="matrix(1.490831e-004 1 -1 1.495741e-004 20.606 18.9536)" fill="#F2F2F2" font-family="'PalatinoLinotype-Roman'" font-size="25.9991">ORDER NOW</text>
</g>
</svg>
