<?xml version="1.0" encoding="utf-8"?>
<!-- Generator: Adobe Illustrator 16.0.0, SVG Export Plug-In . SVG Version: 6.00 Build 0)  -->
<!DOCTYPE svg PUBLIC "-//W3C//DTD SVG 1.1//EN" "http://www.w3.org/Graphics/SVG/1.1/DTD/svg11.dtd">
<svg version="1.1" id="Layer_1" xmlns="http://www.w3.org/2000/svg" xmlns:xlink="http://www.w3.org/1999/xlink" x="0px" y="0px"
	 width="200px" height="60px" viewBox="0 0 200 60" enable-background="new 0 0 200 60" xml:space="preserve">
<g id="green_x5F_button">
	<path id="shadow_1_" opacity="0.3" d="M161.717,60.247H38.663c-21.223,0-38.428-12.37-38.428-27.629v-0.001
		c0-15.259,17.205-27.63,38.428-27.63h123.054c21.223,0,38.429,12.371,38.429,27.63v0.001
		C200.146,47.877,182.939,60.247,161.717,60.247z"/>
	<g id="button_1_">
		<linearGradient id="SVGID_1_" gradientUnits="userSpaceOnUse" x1="0.2349" y1="31.46" x2="200.1455" y2="31.46">
			<stop  offset="0" style="stop-color:#2E8100"/>
			<stop  offset="0.4978" style="stop-color:#7BB61A"/>
			<stop  offset="1" style="stop-color:#2E8100"/>
		</linearGradient>
		<path fill="url(#SVGID_1_)" d="M161.717,60H38.663C17.439,60,0.235,47.223,0.235,31.46l0,0c0-15.763,17.205-28.54,38.428-28.54
			h123.054c21.223,0,38.429,12.777,38.429,28.54l0,0C200.146,47.223,182.939,60,161.717,60z"/>
		<linearGradient id="SVGID_2_" gradientUnits="userSpaceOnUse" x1="100.1904" y1="57.0791" x2="100.1904" y2="4.882813e-004">
			<stop  offset="0" style="stop-color:#6EAF19"/>
			<stop  offset="1" style="stop-color:#BCFF32"/>
		</linearGradient>
		<path display="none" fill="url(#SVGID_2_)" d="M161.717,57.079H38.663c-21.223,0-38.428-12.778-38.428-28.539v0
			C0.235,12.777,17.439,0,38.663,0h123.054c21.223,0,38.429,12.777,38.429,28.54v0C200.146,44.301,182.939,57.079,161.717,57.079z"
			/>
		<path opacity="0.1" fill="#FFFFFF" d="M161.717,0H38.663C17.439,0,0.235,12.777,0.235,28.54v0c0,3.584,0.898,7.012,2.522,10.172
			c5.52-10.736,19.508-18.366,35.905-18.366h123.054c16.396,0,30.388,7.63,35.906,18.366c1.624-3.16,2.522-6.588,2.522-10.172v0
			C200.146,12.777,182.939,0,161.717,0z"/>
		<path opacity="0.1" fill="#FFFFFF" d="M38.663,20.346h123.054c14.67,0,27.406,6.108,33.882,15.083
			c-6.479-10.21-19.22-17.156-33.882-17.156H38.663c-14.661,0-27.401,6.946-33.879,17.156
			C11.258,26.454,23.995,20.346,38.663,20.346z"/>
		<linearGradient id="SVGID_3_" gradientUnits="userSpaceOnUse" x1="100.1904" y1="57.0791" x2="100.1904" y2="4.882813e-004">
			<stop  offset="0" style="stop-color:#5C9900"/>
			<stop  offset="0.2071" style="stop-color:#70AF0B"/>
			<stop  offset="1" style="stop-color:#BCFF32"/>
		</linearGradient>
		<path fill="url(#SVGID_3_)" d="M161.717,2.92c19.022,0,34.497,11.493,34.497,25.62c0,14.126-15.475,25.619-34.497,25.619H38.663
			c-19.02,0-34.496-11.493-34.496-25.62c0-14.127,15.476-25.62,34.496-25.62H161.717 M161.717,0H38.663
			C17.439,0,0.235,12.777,0.235,28.54v0c0,15.761,17.205,28.539,38.428,28.539h123.054c21.223,0,38.429-12.778,38.429-28.539v0
			C200.146,12.777,182.939,0,161.717,0L161.717,0z"/>
		<defs>
			<filter id="Adobe_OpacityMaskFilter" filterUnits="userSpaceOnUse" x="55.173" y="0" width="90.035" height="2.92">
				<feFlood  style="flood-color:white;flood-opacity:1" result="back"/>
				<feBlend  in="SourceGraphic" in2="back" mode="normal"/>
			</filter>
		</defs>
		<mask maskUnits="userSpaceOnUse" x="55.173" y="0" width="90.035" height="2.92" id="SVGID_4_">
			<g filter="url(#Adobe_OpacityMaskFilter)">
				<defs>
					<filter id="Adobe_OpacityMaskFilter_1_" filterUnits="userSpaceOnUse" x="55.173" y="0" width="90.035" height="2.92">
						<feFlood  style="flood-color:white;flood-opacity:1" result="back"/>
						<feBlend  in="SourceGraphic" in2="back" mode="normal"/>
					</filter>
				</defs>
				<mask maskUnits="userSpaceOnUse" x="55.173" y="0" width="90.035" height="2.92" id="SVGID_4_">
					<g filter="url(#Adobe_OpacityMaskFilter_1_)">
					</g>
				</mask>
				<linearGradient id="SVGID_5_" gradientUnits="userSpaceOnUse" x1="55.1733" y1="1.46" x2="145.208" y2="1.46">
					<stop  offset="0" style="stop-color:#000000"/>
					<stop  offset="0.4978" style="stop-color:#FFFFFF"/>
					<stop  offset="0.8338" style="stop-color:#515151"/>
					<stop  offset="1" style="stop-color:#000000"/>
				</linearGradient>
				<rect x="55.173" mask="url(#SVGID_4_)" fill="url(#SVGID_5_)" width="90.035" height="2.92"/>
			</g>
		</mask>
		<linearGradient id="SVGID_6_" gradientUnits="userSpaceOnUse" x1="55.1733" y1="1.46" x2="145.208" y2="1.46">
			<stop  offset="0" style="stop-color:#D9FFBE"/>
			<stop  offset="0.4978" style="stop-color:#D9FFBE"/>
			<stop  offset="1" style="stop-color:#D9FFBE"/>
		</linearGradient>
		<rect x="55.173" fill="url(#SVGID_6_)" width="90.035" height="2.92"/>
		<defs>
			<filter id="Adobe_OpacityMaskFilter_2_" filterUnits="userSpaceOnUse" x="41.153" y="54.159" width="118.075" height="2.92">
				<feFlood  style="flood-color:white;flood-opacity:1" result="back"/>
				<feBlend  in="SourceGraphic" in2="back" mode="normal"/>
			</filter>
		</defs>
		<mask maskUnits="userSpaceOnUse" x="41.153" y="54.159" width="118.075" height="2.92" id="SVGID_7_">
			<g filter="url(#Adobe_OpacityMaskFilter_2_)">
				<defs>
					<filter id="Adobe_OpacityMaskFilter_3_" filterUnits="userSpaceOnUse" x="41.153" y="54.159" width="118.075" height="2.92">
						<feFlood  style="flood-color:white;flood-opacity:1" result="back"/>
						<feBlend  in="SourceGraphic" in2="back" mode="normal"/>
					</filter>
				</defs>
				<mask maskUnits="userSpaceOnUse" x="41.153" y="54.159" width="118.075" height="2.92" id="SVGID_7_">
					<g filter="url(#Adobe_OpacityMaskFilter_3_)">
					</g>
				</mask>
				<linearGradient id="SVGID_8_" gradientUnits="userSpaceOnUse" x1="41.1528" y1="55.6191" x2="159.2275" y2="55.6191">
					<stop  offset="0" style="stop-color:#000000"/>
					<stop  offset="0.4978" style="stop-color:#FFFFFF"/>
					<stop  offset="0.8338" style="stop-color:#515151"/>
					<stop  offset="1" style="stop-color:#000000"/>
				</linearGradient>
				<rect x="41.153" y="54.159" mask="url(#SVGID_7_)" fill="url(#SVGID_8_)" width="118.075" height="2.92"/>
			</g>
		</mask>
		<linearGradient id="SVGID_9_" gradientUnits="userSpaceOnUse" x1="41.1528" y1="55.6191" x2="159.2275" y2="55.6191">
			<stop  offset="0" style="stop-color:#D9FFBE"/>
			<stop  offset="0.4978" style="stop-color:#D9FFBE"/>
			<stop  offset="1" style="stop-color:#D9FFBE"/>
		</linearGradient>
		<rect x="41.153" y="54.159" fill="url(#SVGID_9_)" width="118.075" height="2.92"/>
		<path opacity="0.5" fill="#FFFFFF" d="M34.505,6.083c0.363,0.897-1.805,2.173-4.843,2.852c-3.038,0.678-5.794,0.501-6.158-0.396
			c-0.362-0.897,1.806-2.174,4.844-2.852C31.385,5.009,34.141,5.186,34.505,6.083z"/>
		<ellipse opacity="0.5" fill="#FFFFFF" cx="20.439" cy="10.291" rx="2.251" ry="1.672"/>
		<ellipse opacity="0.5" fill="#FFFFFF" cx="170.915" cy="7.31" rx="2.251" ry="1.673"/>
		<ellipse opacity="0.5" fill="#FFFFFF" cx="177.244" cy="8.983" rx="1.568" ry="1.166"/>
	</g>
	<text transform="matrix(1 0 0 1 15.1138 40.0527)" fill="#F2F2F2" font-family="'MyriadPro-Semibold'" font-size="30">ORDER NOW</text>
</g>
</svg>
